<svg xmlns="http://www.w3.org/2000/svg" xmlns:xlink="http://www.w3.org/1999/xlink" width="200" height="200" class="icon" p-id="3259" t="1537068780588" version="1.1" viewBox="0 0 1024 1024"><defs><style type="text/css"/></defs><path d="M898.8 502.3l-122.5-69.6 98.7-56L505.8 167 148.5 376.7l95.4 56-118.7 69.6 112 65.7-112 65.7L505.7 857l393-223.3L783.1 568l115.7-65.7z m-727 0l95.4-56 238.6 140 246.6-140.1 98.7 56-91.8 52.2-253.4 144-245.4-144-88.7-52.1z m679.3 131.4L505.9 829.8 171.8 633.7l88.7-52.1 245.2 143.9 253.5-144 91.9 52.2z" p-id="3260"/></svg>