<svg xmlns="http://www.w3.org/2000/svg" xmlns:xlink="http://www.w3.org/1999/xlink" width="200" height="200" class="icon" p-id="23619" t="1537070633564" version="1.1" viewBox="0 0 1024 1024"><defs><style type="text/css"/></defs><path fill="#e6e6e6" d="M669.269333 319.061333l30.208 30.122667-356.010666 356.010667-30.208-30.122667z" p-id="23620"/><path fill="#e6e6e6" d="M355.498667 319.061333l356.010666 356.010667-30.122666 30.122667-356.010667-356.010667z" p-id="23621"/><path fill="#e6e6e6" d="M512 955.733333c-247.466667 0-443.733333-204.8-443.733333-443.733333 0-247.466667 204.8-443.733333 443.733333-443.733333 247.466667 0 443.733333 204.8 443.733333 443.733333 0 247.466667-196.266667 443.733333-443.733333 443.733333z m0-853.333333c-221.866667 0-409.6 179.2-409.6 409.6s179.2 409.6 409.6 409.6 409.6-179.2 409.6-409.6-187.733333-409.6-409.6-409.6z" p-id="23622"/></svg>