<svg xmlns="http://www.w3.org/2000/svg" xmlns:xlink="http://www.w3.org/1999/xlink" width="200" height="200" class="icon" p-id="5058" t="1537074140278" version="1.1" viewBox="0 0 1024 1024"><defs><style type="text/css"/></defs><path fill="#3ca2d2" d="M746.9 97H229.3c-57.2 0-103.5 46.4-103.5 103.7v622.5c0 57.3 46.4 103.7 103.5 103.7h517.6c57.2 0 103.5-46.5 103.5-103.7V200.8C850.5 143.5 804.1 97 746.9 97z" class="selected" data-spm-anchor-id="a313x.7781069.0.i3" p-id="5059"/><path fill="#FFF" d="M451.4 654.2a176 176.4 0 1 0 352 0 176 176.4 0 1 0-352 0Z" p-id="5060"/><path fill="#FFF" d="M741.5 758.2c-2.6 0-5.3 1-7.3 3-4 4.1-4 10.6 0 14.7l146.4 146.7c2 2 4.7 3 7.3 3 2.6 0 5.3-1 7.3-3 4-4.1 4-10.6 0-14.7L748.8 761.2c-2-2-4.7-3-7.3-3zM193.9 325.3h-12v-96c0-41.9 34.1-76 76-76H281v12h-23.2c-35.3 0-64 28.7-64 64v96z" p-id="5061"/></svg>