<svg xmlns="http://www.w3.org/2000/svg" xmlns:xlink="http://www.w3.org/1999/xlink" width="200" height="200" class="icon" p-id="27201" t="1537083879085" version="1.1" viewBox="0 0 1024 1024"><defs><style type="text/css"/></defs><path fill="#4469b0" d="M910.7 960c27.2 0 49.4-22.2 49.4-49.4V113.3c0-27.2-22.2-49.4-49.4-49.4H113.3C86.1 64 64 86.1 64 113.3v797c0 27.2 22.2 49.4 49.4 49.4h797.4l-0.1 0.3z" class="selected" data-spm-anchor-id="a313x.7781069.0.i26" p-id="27202"/><path fill="#FFF" d="M682.4 960V612.9h116.5l17.5-135.3h-134v-86.3c0-39.3 10.7-65.8 67.1-65.8H821V204.6c-12.4-1.7-55.1-5.4-104.4-5.4-103.4 0-173.9 63.1-173.9 178.6v99.7H425.9v135.3h116.8V960h139.7z" p-id="27203"/></svg>