<svg xmlns="http://www.w3.org/2000/svg" xmlns:xlink="http://www.w3.org/1999/xlink" width="200" height="200" class="icon" p-id="49112" t="1537086465066" version="1.1" viewBox="0 0 1024 1024"><defs><style type="text/css"/></defs><path fill="#2fa5dd" d="M512 0c-282.816 0-512 229.184-512 512s229.184 512 512 512 512-229.216 512-512-229.216-512-512-512zM763.616 351.008l-84 395.808c-5.792 28.192-22.784 34.784-46.4 21.792l-128-94.592-61.408 59.808c-7.2 7.008-12.8 12.8-25.6 12.8-16.608 0-13.792-6.208-19.392-22.016l-43.616-143.2-126.592-39.392c-27.392-8.384-27.584-27.2 6.208-40.608l493.184-190.4c22.4-10.208 44.192 5.408 35.616 40z" p-id="49113"/></svg>